<svg xmlns="http://www.w3.org/2000/svg" viewBox="0 0 369 42"
>
    <defs id="SvgjsDefs1001"></defs>
    <g id="SvgjsG1007" featurekey="symbolFeature-0"
        transform="matrix(0.6704980842911876,0,0,0.6704980842911876,-3.352490421455938,-12.739463601532565)"
        fill="#ebd834">
        <title xmlns="http://www.w3.org/2000/svg">book</title>
        <desc xmlns="http://www.w3.org/2000/svg">Created with Sketch.</desc>
        <g xmlns="http://www.w3.org/2000/svg" stroke="none" stroke-width="1" fill="none"
            fill-rule="evenodd" xmlns:sketch="http://www.bohemiancoding.com/sketch/ns"
            sketch:type="MSPage">
            <path
                d="M67.6662781,41.7496349 L43.0798468,33.5837791 L50.3195893,29.9317883 L74.9070913,38.0987147 L67.6662781,41.7496349 Z M94.8725925,35.4659837 C94.7901524,34.7058215 94.2901583,34.0516537 93.5674689,33.7882735 L53.3120591,19.1203538 C52.7713803,18.9254953 52.1653918,18.9672507 51.6579032,19.24562 C51.3677567,19.4040763 22.5276287,35.1533536 11.5224063,41.0794073 C8.29653466,42.8074382 5,45.5782831 5,53.0246614 C5,60.4945939 8.69695816,64.5866223 11.9260418,65.8692623 L11.9260418,61.1691041 C10.3254184,59.7108773 9.02564804,56.9571628 9.02564804,53.0246614 C9.02564804,48.0985958 10.7237006,46.253864 12.6551552,45.0675826 C22.3895148,48.6671115 51.9287779,59.5181601 51.9287779,59.5181601 C52.1536146,59.6006003 52.3880872,59.641285 52.6225598,59.641285 C52.9566029,59.641285 53.2874341,59.5588449 53.5872164,59.3961059 L90.9732813,39.0130507 L90.9732813,44.2003552 L53.2317603,65.5491376 L27.2781076,56.5289023 C26.7202984,56.3351145 26.1100272,56.6306142 25.9162394,57.1884234 C25.7213809,57.7473033 26.0168806,58.3575744 26.5757605,58.5513622 L52.9855105,67.7300539 C53.1000702,67.769668 53.2189125,67.7889397 53.3366841,67.7889397 C53.5197654,67.7889397 53.7017761,67.741831 53.8634444,67.649755 L90.9732813,46.6607114 L90.9732813,52.0889123 L50.2906818,76.0672138 C47.0359025,74.8370357 35.6163381,70.5212412 26.3391466,67.0159296 L26.3391466,71.3210176 C37.018891,75.3563015 49.7692747,80.175302 49.7692747,80.175302 L50.6718335,80.5168397 L95,54.3897415 L95,35.4659837 L94.8725925,35.4659837 Z M12.9965858,73.4342687 L18.0018796,72.8743182 C18.0211513,72.8721769 18.0414937,72.8711062 18.0607654,72.8711062 C18.1763957,72.8711062 18.2888141,72.908579 18.3819607,72.9771007 L25.2683884,78.1387095 L25.2683884,61.8690958 L12.9965858,57.232106 L12.9965858,73.4342687 Z"
                fill="#fffade" sketch:type="MSShapeGroup"></path>
        </g>
    </g>
    <g id="SvgjsG1008" featurekey="nameFeature-0"
        transform="matrix(0.9665240372514472,0,0,0.9665240372514472,78.48980619179461,-2.6645359103637043)"
        fill="#ebd834">
        <path
            d="M1.5625 7.93 l15.352 21.055 l15.352 -21.055 l0 32.07 l-6.3086 0 l0 -12.988 l-9.043 12.48 l-9.043 -12.48 l0 12.988 l-6.3086 0 l0 -32.07 z M34.609375 8.515999999999998 l7.1484 0 l5.4297 9.9805 l5.4297 -9.9805 l7.168 0 l-9.4531 17.363 l0 14.121 l-6.2891 0 l0 -14.121 z M81.69925625 8.613 l-0.019531 0 c4.2188 0 7.7539 3.4961 7.832 7.6758 c0 0.83984 -0.29297 1.8164 -0.54688 2.5977 c3.5938 1.5625 6.8164 5.1172 6.8164 10.098 c0 3.0078 -1.0742 5.5859 -3.2227 7.7344 s-4.7266 3.2227 -7.7344 3.2227 l-10.957 0 l0 -31.328 l7.832 0 z M80.11715625 18.633 l1.5625 0 c1.0547 0 1.8945 -0.80078 1.8945 -1.8359 c0 -1.0547 -0.83984 -1.9336 -1.8945 -1.9336 l-1.5625 0 l0 3.7695 z M84.80515625 33.6719 c2.5781 0 4.707 -2.1094 4.707 -4.668 c0 -1.3086 -0.46875 -2.4219 -1.3867 -3.3398 s-2.0313 -0.97656 -3.3203 -0.97656 l-4.6875 0 l0 8.9844 l4.6875 0 z M113.26203125 8.359000000000002 c4.375 0 8.125 1.5625 11.25 4.6875 s4.6875 6.875 4.6875 11.25 s-1.5625 8.125 -4.6875 11.23 s-6.875 4.668 -11.25 4.668 s-8.125 -1.5625 -11.23 -4.668 s-4.668 -6.8555 -4.668 -11.23 s1.5625 -8.125 4.668 -11.25 s6.8555 -4.6875 11.23 -4.6875 z M113.26203125 14.707 c-2.6367 0 -4.8828 0.9375 -6.7383 2.8125 s-2.793 4.1211 -2.793 6.7383 c0 2.6367 0.9375 4.8828 2.793 6.7383 s4.1016 2.793 6.7383 2.793 c2.6172 0 4.8633 -0.9375 6.7383 -2.793 s2.8125 -4.1016 2.8125 -6.7383 c0 -2.6172 -0.9375 -4.8633 -2.8125 -6.7383 s-4.1211 -2.8125 -6.7383 -2.8125 z M146.62140625 8.359000000000002 c4.375 0 8.125 1.5625 11.25 4.6875 s4.6875 6.875 4.6875 11.25 s-1.5625 8.125 -4.6875 11.23 s-6.875 4.668 -11.25 4.668 s-8.125 -1.5625 -11.23 -4.668 s-4.668 -6.8555 -4.668 -11.23 s1.5625 -8.125 4.668 -11.25 s6.8555 -4.6875 11.23 -4.6875 z M146.62140625 14.707 c-2.6367 0 -4.8828 0.9375 -6.7383 2.8125 s-2.793 4.1211 -2.793 6.7383 c0 2.6367 0.9375 4.8828 2.793 6.7383 s4.1016 2.793 6.7383 2.793 c2.6172 0 4.8633 -0.9375 6.7383 -2.793 s2.8125 -4.1016 2.8125 -6.7383 c0 -2.6172 -0.9375 -4.8633 -2.8125 -6.7383 s-4.1211 -2.8125 -6.7383 -2.8125 z M164.86328125 8.515999999999998 l6.3086 0 l0 11.953 l6.9336 -11.953 l7.2852 0 l-9.2969 15.996 l10.801 15.488 l-7.6758 0 l-8.0469 -11.563 l0 11.563 l-6.3086 0 l0 -31.484 z M216.07453125 8.359000000000002 l-0.019531 0.078125 c2.1875 0 4.2383 0.41016 6.1719 1.25 s3.6328 1.9727 5.0977 3.3984 l-4.4922 4.4922 c-1.8945 -1.875 -4.1406 -2.8125 -6.7383 -2.8125 c-2.6367 0 -4.8828 0.9375 -6.7383 2.8125 s-2.793 4.1211 -2.793 6.7383 c0 2.6367 0.9375 4.8828 2.793 6.7383 s4.1016 2.793 6.7383 2.793 s4.8828 -0.9375 6.7578 -2.8125 l4.4922 4.4922 c-1.4648 1.4453 -3.1641 2.5781 -5.0977 3.418 s-3.9844 1.25 -6.1719 1.25 c-4.375 0 -8.125 -1.5625 -11.23 -4.668 s-4.668 -6.8555 -4.668 -11.23 s1.5625 -8.125 4.668 -11.25 s6.8555 -4.6875 11.23 -4.6875 z M229.66796875 8.515999999999998 l6.3086 0 l0 25.176 l12.578 0 l0 6.3086 l-18.887 0 l0 -31.484 z M269.8629375 8.515999999999998 l6.3477 0 l0 12.656 l0 6.3281 c0 3.4961 -1.2305 6.4844 -3.7109 8.9648 s-5.4688 3.7109 -8.9453 3.7109 c-3.4961 0 -6.4844 -1.2305 -8.9648 -3.7109 s-3.7109 -5.4688 -3.7109 -8.9648 l0 -6.3281 l0 -12.656 l6.3477 0 l0 12.656 l0 5.6641 l0 0.64453 c0 1.7383 0.625 3.2227 1.8555 4.4531 s2.7148 1.8555 4.4531 1.8555 c1.7188 0 3.2031 -0.625 4.4531 -1.8555 s1.875 -2.7148 1.875 -4.4531 l0 -0.64453 l0 -5.6641 l0 -12.656 z M287.16800625 8.613 l-0.019531 0 c4.2188 0 7.7539 3.4961 7.832 7.6758 c0 0.83984 -0.29297 1.8164 -0.54688 2.5977 c3.5938 1.5625 6.8164 5.1172 6.8164 10.098 c0 3.0078 -1.0742 5.5859 -3.2227 7.7344 s-4.7266 3.2227 -7.7344 3.2227 l-10.957 0 l0 -31.328 l7.832 0 z M285.58590625 18.633 l1.5625 0 c1.0547 0 1.8945 -0.80078 1.8945 -1.8359 c0 -1.0547 -0.83984 -1.9336 -1.8945 -1.9336 l-1.5625 0 l0 3.7695 z M290.27390625 33.6719 c2.5781 0 4.707 -2.1094 4.707 -4.668 c0 -1.3086 -0.46875 -2.4219 -1.3867 -3.3398 s-2.0313 -0.97656 -3.3203 -0.97656 l-4.6875 0 l0 8.9844 l4.6875 0 z"></path>
    </g>
</svg>